# xmcd
#
# Track frame offsets: 
#        150
#        21185
#        38775
#        48762
#        61672
#        77307
#        93900
#        118937
#        132110
#        141990
#        155312
#        177775
#        193705
#        208057
#        222815
#        235347
#
# Disc length: 3389 seconds
#
# Revision: 2
# Processed by: cddbd v1.4PL0 Copyright (c) Steve Scherf et al.
# Submitted via: ExactAudioCopy v0.90b4
#
DISCID=d10d3b10
DTITLE=Marty Robbins - The Many Sides Of Marty Robbins - Disc 2
DYEAR=1900
DGENRE=Country
TTITLE0=El Paso
TTITLE1=Big Iron
TTITLE2=Five Brothers
TTITLE3=The Hanging Tree
TTITLE4=Jimmy Martinez
TTITLE5=Ballad Of The Alamo
TTITLE6=San Angelo
TTITLE7=The Cowboy In The Continental Suit
TTITLE8=Running Gun
TTITLE9=Old Red
TTITLE10=Mr. Shorty
TTITLE11=Strawberry Roan
TTITLE12=Cool Water
TTITLE13=Ride Cowboy Ride
TTITLE14=Streets Of Laredo
TTITLE15=El Paso City
EXTD=
EXTT0=
EXTT1=
EXTT2=
EXTT3=
EXTT4=
EXTT5=
EXTT6=
EXTT7=
EXTT8=
EXTT9=
EXTT10=
EXTT11=
EXTT12=
EXTT13=
EXTT14=
EXTT15=
PLAYORDER=
